HIERARCHY
ROOT Hips
{
   OFFSET 0.00000 0.00000 0.00000
   CHANNELS 6 Xposition Yposition Zposition Zrotation Xrotation Yrotation
   JOINT RightUpLeg
   {
      OFFSET -8.945800 -8.667070 0.101652
      CHANNELS 3 Zrotation Xrotation Yrotation
      JOINT RightLeg
      {
         OFFSET 0.000000 -44.422697 1.372700
         CHANNELS 3 Zrotation Xrotation Yrotation
         JOINT RightFoot
         {
            OFFSET 0.253549 -42.092399 -1.460590
            CHANNELS 3 Zrotation Xrotation Yrotation
            JOINT RightToes
            {
               OFFSET 0.040000 -4.415090 8.499099
               CHANNELS 3 Zrotation Xrotation Yrotation
               End Site
               {
                  OFFSET -0.080000 -0.137448 9.779790
               }
            }
         }
      }
   }
   JOINT Spine
   {
      OFFSET 0.000000 11.890501 0.000000
      CHANNELS 3 Zrotation Xrotation Yrotation
      JOINT Spine1
      {
         OFFSET 0.000000 25.657401 0.127663
         CHANNELS 3 Zrotation Xrotation Yrotation
         JOINT HEad
         {
            OFFSET 0.000000 8.734161 0.011341
            CHANNELS 3 Zrotation Xrotation Yrotation
            End Site
            {
               OFFSET -0.290000 12.774200 2.513950
            }
         }
         JOINT LeftShoulder1
         {
            OFFSET 8.990000 -0.362252 -0.220000
            CHANNELS 3 Zrotation Xrotation Yrotation
            JOINT LeftArm
            {
               OFFSET 10.282700 -0.003380 0.322123
               CHANNELS 3 Zrotation Xrotation Yrotation
               JOINT LeftForeArm
               {
                  OFFSET 32.766900 0.099144 -1.424340
                  CHANNELS 3 Zrotation Xrotation Yrotation
                  JOINT LeftHand
                  {
                     OFFSET 27.564301 0.085362 1.022160
                     CHANNELS 3 Zrotation Xrotation Yrotation
                     End Site
                     {
                        OFFSET 16.744301 -0.600000 1.502910
                     }
                  }
               }
            }
         }
         JOINT RightShoulder
         {
            OFFSET -8.990000 -0.362252 -0.220000
            CHANNELS 3 Zrotation Xrotation Yrotation
            JOINT RightArm
            {
               OFFSET -10.282700 -0.003380 0.322123
               CHANNELS 3 Zrotation Xrotation Yrotation
               JOINT RightForeArm
               {
                  OFFSET -32.897098 0.099144 -1.424340
                  CHANNELS 3 Zrotation Xrotation Yrotation
                  JOINT RightHand
                  {
                     OFFSET -27.492101 0.085362 1.022160
                     CHANNELS 3 Zrotation Xrotation Yrotation
                     End Site
                     {
                        OFFSET -16.631201 -0.600000 1.502910
                     }
                  }
               }
            }
         }
      }
   }
   JOINT LeftUpLeg
   {
      OFFSET 8.945800 -8.667070 0.101652
      CHANNELS 3 Zrotation Xrotation Yrotation
      JOINT LeftLeg
      {
         OFFSET 0.000000 -44.422697 1.372700
         CHANNELS 3 Zrotation Xrotation Yrotation
         JOINT LeftFoot
         {
            OFFSET -0.253549 -42.092399 -1.460590
            CHANNELS 3 Zrotation Xrotation Yrotation
            JOINT LeftToes
            {
               OFFSET -0.040000 -4.415090 8.499099
               CHANNELS 3 Zrotation Xrotation Yrotation
               End Site
               {
                  OFFSET 0.080000 -0.047448 9.779790
               }
            }
         }
      }
   }
}
MOTION
Frames: 13
Frame Time: 0.016667
-190.883195 98.212660 -398.247789 -6.437648 39.847382 -178.163927 -17.417602 31.090734 -10.974210 -4.054238 28.643250 -16.603237 -41.779068 8.927640 32.113968 1.157573 -11.103399 -30.622002 -25.512249 36.679280 91.391333 16.996048 2.959873 -76.460225 19.227035 23.675324 5.662196 12.771740 52.530722 -13.212400 -102.630450 -41.975375 -132.005263 8.368752 13.759547 -44.927516 -17.696590 -38.083741 -52.022556 6.489717 77.916059 36.530413 117.182769 205.759804 198.765704 10.217498 282.603585 75.036581 -15.074224 -11.664138 44.817492 21.095261 10.696394 -73.187383 -29.219201 -9.211426 103.560482 -63.346569 16.625288 33.097413 -3.689055 -18.573323 -24.047149
-190.965631 97.904433 -397.617182 -6.407389 37.708952 -177.207086 -16.034755 28.282147 -11.513736 -4.422618 29.228418 -17.461949 -43.514008 9.912444 31.863683 0.663914 -11.771633 -30.839271 -24.652233 39.663530 90.136948 15.779991 0.037300 -82.230635 15.592330 22.023177 9.879521 13.995617 57.865786 -11.921261 -113.712766 -37.774798 -141.751355 9.121954 16.627080 -45.783120 -17.307124 -39.407688 -54.035061 -1.869342 65.998226 40.821066 129.124002 219.604174 211.737121 9.078588 295.476989 68.899554 -14.165325 -11.292415 40.655369 20.295629 4.855161 -72.957560 -28.753225 -11.628344 95.137159 -37.771790 17.140049 32.807359 -4.344065 -17.008561 -21.765199
-191.386258 97.245253 -397.266382 -4.581696 37.314833 -179.467660 -15.806318 26.220444 -9.196078 -4.017235 31.008960 -18.321190 -44.709148 10.495990 31.961693 0.138390 -12.442444 -31.032534 -21.129566 42.929593 92.325252 16.293427 -2.215710 -86.362831 12.396949 17.398010 13.506600 15.160696 62.977302 -13.153566 -122.677069 -30.365334 -151.582743 8.489832 20.482081 -47.393081 -19.957690 -40.258098 -55.678240 -6.814295 59.139056 45.874928 146.231659 228.388781 224.829501 8.267273 309.870902 68.584347 -10.122374 -11.631832 44.944547 19.325370 2.987038 -72.573349 -28.127107 -14.385038 89.449325 -12.635101 15.759630 33.124604 -5.118218 -15.068294 -19.011311
-192.090833 96.499718 -397.212976 -2.554749 39.254549 -181.424823 -15.478961 26.522198 -6.877663 -3.651107 32.997139 -19.174011 -44.670769 11.296997 32.137799 -0.216850 -12.814244 -31.315157 -18.476708 43.770325 94.735229 16.507474 -2.737723 -90.938088 9.411830 13.435931 16.626651 16.143272 70.266896 -12.944640 -130.410564 -23.163676 -159.853460 7.583476 25.543716 -47.753066 -20.910991 -40.471248 -56.196290 -11.727232 54.673417 48.517272 164.982222 235.798757 239.175275 7.607660 322.665103 66.101895 -9.677996 -10.807272 44.163631 22.935792 4.763352 -74.968068 -26.174765 -15.630645 85.519631 -38.113729 11.967297 34.034016 -5.847698 -13.628747 -16.892911
-192.886540 95.857609 -397.446932 0.049434 40.165877 -183.323766 -14.271423 26.594390 -5.181157 -3.153874 34.106529 -19.632607 -44.856714 12.075792 32.019428 -0.572283 -13.279570 -31.707186 -15.234954 45.488455 96.498361 18.154614 -3.538690 -95.377253 6.872971 10.444344 19.118396 17.390198 76.751225 -13.374823 -135.661313 -14.202265 -166.106731 6.818983 30.405315 -47.460160 -22.984000 -41.181287 -56.419152 -15.996853 51.842867 51.253634 184.043491 240.786134 254.575548 6.737332 334.968733 62.700399 -7.981535 -11.197381 45.323295 23.032795 3.689304 -78.378504 -25.024000 -17.186247 84.536473 -26.574318 12.358498 34.765359 -6.276989 -11.515556 -14.910122
-193.828504 95.105036 -398.058504 2.201018 41.363311 174.692743 -13.564221 26.533738 -3.716877 -2.866161 35.921109 -20.271223 -44.983103 12.655909 31.526114 -0.822302 -13.690196 -32.362956 -11.748905 46.539789 97.750553 20.608568 -5.551001 -100.097139 5.098318 7.775067 20.944285 18.645416 82.213409 -13.819976 -137.712965 -4.084015 -170.299606 6.144542 33.590734 -48.179044 -24.042092 -41.113525 -57.568707 -19.136845 50.351314 54.316618 203.192186 244.653496 271.001580 6.016288 345.894932 61.151223 -8.377103 -11.201052 44.500209 23.782891 3.597283 -83.875427 -23.406206 -17.464982 84.959255 -31.496342 11.651417 35.236102 -6.386097 -9.709642 -13.986528
-194.882695 94.492863 -398.971742 4.665196 42.044309 172.665925 -13.097654 26.900266 -2.509776 -2.235091 37.299830 -20.236543 -44.980173 12.972894 31.193252 -1.203725 -14.322289 -32.925996 -7.937820 46.525049 100.088294 23.229079 -7.793460 -103.961558 3.040339 6.902324 22.270206 19.833819 86.758463 -13.027442 -138.490131 6.340491 -173.066899 5.679459 36.404259 -49.201838 -25.837625 -41.177298 -59.231305 -21.931524 49.561936 57.296626 221.231685 247.809153 287.934493 5.840134 355.291496 60.262677 -8.042204 -12.149150 45.072306 23.835605 2.317090 -89.006886 -22.072060 -17.873046 88.026385 -28.870441 11.701713 36.710993 -6.590879 -7.964723 -12.813026
-196.050775 93.937930 -400.204729 6.982306 41.680085 170.983718 -12.204433 26.853375 -1.410225 -1.758455 37.560795 -19.765884 -44.692233 12.709420 30.905766 -1.550293 -15.002020 -33.510759 -4.508653 48.838653 103.474094 26.790865 -9.333657 -106.803183 -0.274856 9.650475 23.215403 21.212645 90.059623 -10.255265 -138.998762 17.139219 -175.356911 5.172250 38.487949 -51.107174 -26.441942 -41.361980 -61.161885 -23.709934 49.186392 59.899277 237.872485 251.339350 305.035155 5.801906 362.664521 61.136675 -8.748140 -12.842934 45.201000 24.161979 0.525596 -94.682678 -20.562255 -17.937736 92.323612 -30.502604 11.327829 37.932712 -6.703832 -6.582637 -12.165700
-197.231004 93.469685 -401.655763 9.424867 42.295909 168.848246 -11.941535 27.770607 -0.548064 -1.521457 38.104587 -18.960844 -44.168112 12.738073 30.852702 -1.734369 -15.334321 -34.074113 -1.675731 48.496430 106.818121 29.589431 -12.172323 -109.649275 -2.472250 10.698691 23.695279 22.244627 93.426469 -7.980133 221.741258 25.971250 -176.379772 5.928421 40.988607 -51.541161 -27.305527 -41.359900 -61.259707 -25.767724 49.851191 63.246595 255.340994 252.824315 323.300311 6.490241 368.940755 61.100345 -8.774399 -13.789229 45.884094 24.209679 0.146266 -99.849374 -19.701886 -17.669496 96.550782 -30.543680 11.031180 39.055558 -6.794089 -5.657132 -11.838957
-198.341958 93.052500 -403.231195 11.870462 43.385304 166.550761 -12.015973 29.328965 0.253505 0.253192 38.089315 -18.089561 -45.181893 12.635467 30.880638 -1.863600 -15.567787 -34.713767 0.604386 47.744255 110.803133 32.026702 -14.900025 -112.019153 -3.768927 11.485915 23.703748 22.584348 96.222626 -5.463587 223.151706 33.240772 -177.019884 6.960846 43.550420 -52.284825 -27.558925 -41.009590 -60.435296 -27.946298 51.760447 66.951659 273.206720 252.822867 342.351757 7.678627 373.886932 60.818941 -9.186003 -14.230338 45.787836 24.245512 1.440447 -104.597524 -19.368555 -17.260692 100.110376 -30.913576 10.235815 39.440108 -6.806357 -5.592970 -12.252686
-199.429700 92.730254 -404.883951 14.597462 45.392341 163.332854 -12.913154 32.291471 1.334820 0.509843 37.840822 -16.513432 -45.315993 12.065216 30.824565 -1.954001 -15.736541 -35.449256 2.682888 45.984962 115.237709 35.251245 -16.452082 -113.844910 -4.237036 12.105813 23.443572 22.188641 98.349034 -2.389707 225.121737 39.323892 -177.707261 7.694048 46.276615 -54.099937 -28.068210 -40.403144 -58.645261 -30.184693 55.831708 71.203568 291.638177 251.406040 362.222608 9.298729 377.618701 60.411070 -8.936554 -14.461150 45.937656 23.768198 4.161103 -109.228481 -20.172948 -16.165051 103.276545 -31.447885 10.196767 39.899906 -6.796741 -5.496359 -12.768542
-200.479752 92.555274 -406.556963 16.164435 45.404034 161.457626 -13.733668 33.159517 1.987028 0.406504 37.601913 -14.505876 -44.501701 11.424470 30.899605 -2.027087 -15.916301 -36.312906 3.801121 46.440051 120.421795 35.862561 -19.389988 -115.917831 -4.547766 13.129314 23.034728 21.188866 100.658212 1.391019 225.387158 43.634913 -178.992101 9.608833 47.995890 -54.969202 -27.511432 -40.527846 -58.255681 -31.957212 57.458953 74.285588 309.039695 251.748670 381.284191 11.113148 378.845567 59.749675 -8.805506 -14.052567 45.205252 23.313932 5.162435 -112.886033 -20.901965 -16.128098 106.096634 -31.714194 9.532891 40.141708 -6.824709 -6.311242 -13.634206
-201.487614 92.500180 -408.244051 17.657489 44.643138 159.993821 -14.272174 33.204524 2.093260 0.408487 37.545847 -12.273755 -43.444743 10.861210 31.149300 -2.102836 -16.093860 -37.184738 4.094358 47.568760 125.714577 35.186023 -21.512736 -118.444769 -6.353794 15.333338 22.793637 20.610029 101.417661 4.913024 -133.899930 47.417048 -180.363999 11.266658 49.025223 -56.804959 -26.975137 -40.830809 -58.340334 -31.960214 58.201319 77.514075 325.843491 253.343655 399.899434 13.136643 377.386858 59.826337 -8.518252 -13.679405 44.952166 23.208310 5.482915 -115.741216 -21.156270 -16.285097 108.954734 -31.864926 8.966169 40.701131 -7.076283 -7.574689 -14.074096
